<?xml version="1.0" encoding="utf-8"?>
<svg version="1.1" id="Слой_1" xmlns="http://www.w3.org/2000/svg" xmlns:xlink="http://www.w3.org/1999/xlink" x="0px" y="0px"
	 viewBox="0 0 370.5 219.3" style="enable-background:new 0 0 370.5 219.3;" xml:space="preserve">
<style type="text/css">
	.st0{fill:#314361;}
	.st1{fill:#1CAF9A;}
	.st2{fill:#EF4836;}
</style>
<path id="XMLID_3_" class="st0" d="M269.8,219.3L0,4.7l339.8,32.6L269.8,219.3z"/>
<g id="XMLID_5_">
	<path id="XMLID_6_" class="st1" d="M103.4,98.4h1c2.3,0,4.7,0.3,7,0.8l-0.2,0.8c-0.1-0.2-0.1-0.6,0.1-1.2h1c0.8,0,1.1,0.2,1,0.5
		H112l-0.2,0.6c-0.1-0.2,0-0.6,0.2-1.4h1c0.3,0,0.9,0.4,1.7,1.3c0.5-0.1,0.9-0.1,1.1-0.1c2.5,0.6,4.2,2.6,5.3,5.8
		c1.5,6,1.5,11.5,0.1,16.5c-0.7,2.3-3,7.4-6.9,15.2h-1.8l0.3-1.2h1.2l-0.6,1.5h-1.8l0.4-2.9h1c-1.8,2.6-6.8,6.6-14.9,11.8
		c-5.9,3.8-12,6.9-18.5,9.1c-4.6,1.3-7.7,2-9.5,2c-1.8,0-5.5-0.6-11-1.9c-4.1,0-7.3-1.9-9.7-5.8c-0.5-2.9-0.2-5.9,0.7-9.1
		c2.4-8.5,8.1-16.4,17-23.8c3.2-3.3,8.2-6.9,15-10.7c6.5-2.9,9.7-4.4,9.6-4.4c0.2-0.8,3.1-1.8,8.6-3
		C101.1,98.6,102.1,98.4,103.4,98.4z M72.5,126.1c0.3,1,0.3,2.1,0,3.1c-3.4,4.8-5.3,7.7-5.6,8.7c-0.6,2.1-0.3,4.3,1,6.6
		c2.1,1,3.6,1.4,4.6,1.4c6.9-0.8,11.3-1.7,13.1-2.8c7.3-3.5,11-5.8,11.3-6.7c7-7,11.5-14.2,13.6-21.4c0.4-1.3,0.3-2.1-0.2-2.2
		c-3.8-3.2-6.2-4.8-7.2-4.8l-2.7,1.4c-5.2,1.7-10.4,4-15.6,6.8c-2.9,1.8-4.6,3.3-4.9,4.4C78.5,120.7,76,122.5,72.5,126.1z"/>
	<path id="XMLID_60_" class="st1" d="M149.8,91.7h1.9c-0.7,2.5-1,3.8-0.9,3.8c-0.2-0.4-0.3-0.2-0.4,0.7c-0.5,1.3-0.7,2-0.8,2.1
		l-5.8,39c-0.6,0,0.2-2.2,2.5-6.7l13.8-21.1h1.5l-0.2,0.8c-0.1,0.2-0.4,0.8-0.9,1.8l0.1-0.4h-1.4c0,0.1,0.4-0.6,1.3-2.1h1.7
		l-0.3,1.1c-0.1,0.5,0,0.8,0.4,0.8c-0.3-0.4-0.5-0.5-0.6-0.2h-1.2l1.8-3h1.8l-0.1,0.3h-1.2c0.2-0.4,4.2-5.4,12-15.1h1.5l-0.2,0.8
		c-0.1,0.3-0.4,0.8-1,1.6l0.2-0.6H174c-0.1,0.2,0.3-0.2,1.2-1.4h1.7l-0.4,1.4l-11,20.4c-6.2,13.5-11,23.5-14.5,30.1l-7.4,11.8
		c-0.1,2.1-0.3,3.6-0.6,4.6h-1.9c0.1-0.5,0.2-0.8,0.2-0.9h1.2l0.2-0.5l-0.1,0.9l-0.3,1.1c-1-0.1-1.6-0.3-1.7-0.6
		c0.2-0.8,0.2-1.1-0.1-1.1l-0.2-0.5l-0.3,1.1H138l0.1-0.3h1.4l0.2-0.5l0.2,4.1h-1.9l-0.1-0.9h1.1l0.2-0.6c0.1,0.2,0,0.6-0.2,1.4
		h-1.6c-1.6-3.4-2.7-10.3-3.3-20.5c0-3.5,0.3-11,0.8-22.4c0.5,0-0.1,1.6-1.8,4.7c-0.5,1.7-4.5,8.1-12,19.2c-0.9,0.7-2.1,1.1-3.4,1.1
		c0.1-0.4,0-0.8-0.4-1l0.4-1.5h1.2c-0.9,1.6-1.8,2.4-2.7,2.4c0,0.1-0.4,0.2-1.2,0.2c-1.1-0.5-1.5-1.5-1-3c0.1,0,0.1-0.3-0.1-1
		c1-3.5,8.7-15.7,23.2-36.5c0.5-1.7,1.2-2.5,2.2-2.5c0.5-0.4,1.9-2,4.1-4.7c0-0.9,0.4-2.5,1-4.7l0.2-0.8c1.3-1,2.2-1.4,2.6-1.4
		c0.8,0,1.5,0.2,2,0.6h-0.5l0.6-1h1.7c-0.2,0.7-0.6,1.4-1.1,2.1l0.2-0.6h-1.1C149.3,92.8,149.6,92.3,149.8,91.7z M162.7,107.7h1.9
		l-0.4,1.5h-1.9L162.7,107.7z"/>
	<path id="XMLID_63_" class="st1" d="M194.5,95.7h0.8c1,0.2,1.7,0.7,2.1,1.4h-0.4c0.1-0.2,0.5-0.3,1.1-0.3h1.1
		c-0.1,0.3-0.1,0.5,0,0.6c0.5-0.4,1.2-0.6,2.2-0.6l0.2,0.1c0.1,0,0.5-0.1,1-0.1c0.5,0.4,0.4,0.6-0.2,0.6c0-0.1,0.8-0.2,2.2-0.5
		c0.9,0.6,1.4,1.4,1.5,2.6l-0.2,0.6c-0.9,3.2-7.3,12.8-19.2,28.6c-6.2,6.5-9.4,10.2-9.7,11c-1.8,2.3-2.7,3.3-2.6,3h-0.8
		c4.7-2,11.5-4.2,20.5-6.4l-2.5,1.5h-2c0.5-0.2,1.1-0.3,2-0.3l-0.2,0.7c-0.1,0.4-1.7,1.5-4.7,3.3h-2l20.5-6.4
		c-4.8,2.4-7.1,3.3-7,2.8h-0.8c0.5-0.2,1.1-0.3,2-0.3l-0.3,1.1c-1.3,0.5-1.9,0.9-2.1,1.4c-16.7,8.7-27.5,13.9-32.3,15.4
		c-1.8,0.4-3.2,1.1-4.2,2.2c-0.5,0.6-1.1,0.9-1.7,1c-1.2,0-1.6-0.8-1.1-2.3l0-0.2l-0.7,0.1c-1.4-0.8-1.9-1.5-1.7-2.2l0.3-1
		c0.1-0.4,1.3-1.2,3.5-2.5c0.2-0.6,1.1-1.5,2.7-2.6c2-2.6,4.2-6.4,6.6-11.4c0.6-2,7.4-13.6,20.5-34.8c0.1-0.1,1.4-2.1,3.9-6.1
		C193.5,96.2,194,96.1,194.5,95.7z"/>
	<path id="XMLID_65_" class="st1" d="M256,98.6c-0.1,0.4,0.2,0.8,0.8,1.3l-0.4,0.4c0,0,1.1,0.6,3.2,1.8c-1.7,0-2.6,0-2.6-0.1
		l0.2-0.6c0.4,0,0.6,0.4,0.4,1c-0.1,0.2-0.2,0.3-0.3,0.5l0,0.4c-0.9,1.8-1.7,2.6-2.5,2.6h-0.3h0.1c0,0-1.8,0.9-5.4,2.4
		c-12.1,15.4-21.3,25.9-27.5,31.6l0.1-0.4h0.3c2.6-0.7,4.1-1,4.6-1h0.8c-0.2,0.8,0.7,0.9,2.7,0.3l-1,0.2c0,0.2,0.4,0.3,1.2,0.3
		c0.6,0,7.6-0.2,21.1-0.5c-13,1.2-22.3,2.7-27.9,4.5l0.2-0.9h-0.8c5.2-1.7,8.3-2.5,9.2-2.5c-0.2,0.7-0.3,1.1-0.4,1.1l0.6,0.8
		c-6.1,1.7-9.4,2.7-10,2.9c-0.2,0.6-3.1,1.8-8.7,3.7c-1.7,0.7-2.8,1.2-3.3,1.5c-0.8,0-1.2,0-1.3,0.1c-3.3,0.7-6.3,1.2-9,1.5
		c-0.2,0.2-1.5,0.5-4,1c0.1-0.4-0.1-0.7-0.5-0.9l0.6-0.7c-0.1,0.3-0.6,0.4-1.7,0.3l0.3-1l0,0l0.7,0.3c-0.1,0-0.4,0.1-1,0.1l-0.2-1
		l0.5-0.4l0-0.4c0.8-1.1,2.3-2.2,4.8-3.3c0.2-0.7,3.8-2,10.9-4c0.1,0,1.7-2.6,4.8-7.9c2.3-3.4,8.2-11,17.8-22.9l0.4,0.2
		c-3.1-0.1-4.7,0.1-4.8,0.5c0.8-0.5-0.4-0.7-3.4-0.5c-1.1-0.3-1.6-0.7-1.5-1.2c-0.4-0.1-0.6-0.5-0.6-1l-0.3,0.3c0.2,0,0.4-0.3,0.6-1
		l0.5-0.6c0.3,0,0.3-0.3,0-1l0.2-0.9c0.2,0,0.3,0.2,0.2,0.6l0-0.9c1.5-1.3,4.8-2.5,10.2-3.5c2.2-0.3,3.8-0.4,4.8-0.4
		c0.7,0,1.5,0,2.5,0.1c2,0,5.9-0.8,11.6-2.5C254.2,98.9,255,98.8,256,98.6z"/>
	<path id="XMLID_67_" class="st1" d="M276.3,91.7h1.9c-0.7,2.5-1,3.8-0.9,3.8c-0.2-0.4-0.3-0.2-0.4,0.7c-0.5,1.3-0.8,2-0.8,2.1
		l-5.8,39c-0.6,0,0.2-2.2,2.5-6.7l13.8-21.1h1.5l-0.2,0.8c-0.1,0.2-0.4,0.8-0.9,1.8l0.1-0.4h-1.4c0,0.1,0.4-0.6,1.3-2.1h1.7
		l-0.3,1.1c-0.1,0.5,0,0.8,0.4,0.8c-0.3-0.4-0.5-0.5-0.6-0.2h-1.2l1.8-3h1.8l-0.1,0.3h-1.2c0.2-0.4,4.2-5.4,12-15.1h1.5l-0.2,0.8
		c-0.1,0.3-0.4,0.8-1,1.6l0.2-0.6h-1.4c-0.1,0.2,0.3-0.2,1.2-1.4h1.7l-0.4,1.4l-11,20.4c-6.2,13.5-11,23.5-14.5,30.1l-7.4,11.8
		c-0.1,2.1-0.3,3.6-0.6,4.6h-1.9c0.1-0.5,0.2-0.8,0.2-0.9h1.2l0.2-0.5l-0.1,0.9l-0.3,1.1c-1-0.1-1.6-0.3-1.7-0.6
		c0.2-0.8,0.2-1.1-0.1-1.1l-0.2-0.5l-0.3,1.1h-1.9l0.1-0.3h1.4l0.2-0.5l0.2,4.1h-1.9l-0.1-0.9h1.1l0.2-0.6c0.1,0.2,0,0.6-0.2,1.4
		h-1.6c-1.6-3.4-2.7-10.3-3.3-20.5c0-3.5,0.3-11,0.8-22.4c0.5,0-0.1,1.6-1.8,4.7c-0.5,1.7-4.5,8.1-12,19.2c-0.9,0.7-2.1,1.1-3.4,1.1
		c0.1-0.4,0-0.8-0.4-1l0.4-1.5h1.2c-0.9,1.6-1.8,2.4-2.7,2.4c0,0.1-0.4,0.2-1.2,0.2c-1.1-0.5-1.5-1.5-1-3c0.1,0,0.1-0.3-0.1-1
		c1-3.5,8.7-15.7,23.2-36.5c0.5-1.7,1.2-2.5,2.2-2.5c0.5-0.4,1.9-2,4.1-4.7c0-0.9,0.4-2.5,1-4.7l0.2-0.8c1.3-1,2.2-1.4,2.6-1.4
		c0.8,0,1.5,0.2,2,0.6H275l0.6-1h1.7c-0.2,0.7-0.6,1.4-1.1,2.1l0.2-0.6h-1.1C275.8,92.8,276.1,92.3,276.3,91.7z M289.2,107.7h1.9
		l-0.4,1.5h-1.9L289.2,107.7z"/>
	<path id="XMLID_70_" class="st1" d="M353.4,98c8.2,0.3,13.1,0.4,14.8,0.4l2.3,0.3l-0.4,1.5h-1.2l0.3-1h1.4l-0.4,1.4
		c-5.4,2.3-15.5,5.3-30.1,9c-2.3,0.1-3.6,0.6-3.8,1.4c-0.1,0.3-1.3,1.9-3.6,4.7h-1l1.5-0.2h1.6l7.1,2.2l-0.2,0.8l0.4-0.4H342
		l-0.4,1.4c-7.6,3.1-11.8,4.6-12.7,4.6c-2.5,0-3.8,0.4-4.1,1.3l-12.6,16.5h-1.1c5-2,15.1-5,30.2-9l-0.5,1.8c-0.8,0.1-1.1-0.2-1-0.7
		l0.4-0.1h1l-0.3,1c-2.2,1.8-6.8,4.3-13.8,7.4c-7.7,4.2-14.8,7.6-21.2,10.1c-9.2,3.7-15.6,6.6-19.1,8.7c-0.1,0.2-1,0.7-2.9,1.5h-0.6
		c-1-0.3-1.4-0.7-1.3-1l-1.8,0.3c-0.7-0.9-1-2.3-0.9-4c-0.4,0-0.5-0.4-0.2-1.3c2-2.9,15.5-17.9,40.6-45c0.1-0.2,0.7-1,1.8-2.2
		c-0.3,0-0.5,0.1-0.5,0.2c0.4-0.1,0.4-0.2,0.1-0.2c-0.8,0-2.4,0.1-4.7,0.2c-1.8-0.6-2.6-1.2-2.5-1.8l0.3-1.2h0.5
		c-0.1,0.5-0.6,0.6-1.5,0.2c0.2-0.8,0.4-1.2,0.4-1.2v-0.3c0.2-0.6,0.9-1.4,2.1-2.3c1.8-0.9,3.9-1.5,6.2-1.9c1,0,11-1,29.9-3H353.4z"
		/>
</g>
<g id="XMLID_37_">
	<path id="XMLID_38_" class="st2" d="M50.7,66.5c3.4-1.1,7.1-2.2,11.2-3.4c4.1-1.2,8.6-2.5,13.4-3.9c3.6-7.6,7.3-15.5,11.2-23.7
		c3.9-8.2,7.9-16.4,11.9-24.7c0.6-1.3,1.5-2.2,2.6-2.8c1.1-0.6,2.1-0.8,3-0.8c0.9,0,1.7,0.4,2.1,1c0.5,0.6,0.4,1.5-0.3,2.7l-1.6,3
		c0.7,0.6,1.3,1.4,1.8,2.5c0.5,1.1,0.6,2.2,0.5,3.5L102.4,51c6.2-1.9,12.6-4,19.4-6.3c6.8-2.3,13.9-4.8,21.3-7.5
		c1.5-0.6,2.5-0.5,3,0.1c0.6,0.6,0.7,1.4,0.4,2.5c-0.3,1-0.9,2.1-1.9,3.2c-1,1.1-2.3,1.9-3.9,2.3c-7.9,2.1-15,4-21.3,5.7
		c-6.4,1.7-12.3,3.3-17.8,4.8c-0.7,5.1-1.4,10.4-2.2,15.8c-0.8,5.4-1.5,10.7-2.2,15.9c-0.7,5.2-1.4,10.1-2,14.8
		c-0.6,4.7-1.2,8.8-1.7,12.4c-0.5,3.6-0.9,6.5-1.2,8.7c-0.3,2.2-0.5,3.5-0.5,3.8c-0.1,0.7-0.3,1.2-0.6,1.5s-0.7,0.3-1,0.2
		c-0.3-0.1-0.6-0.4-0.9-0.9c-0.2-0.5-0.3-1-0.2-1.8c0-0.2,0.2-1.4,0.4-3.4c0.2-2.1,0.5-4.8,0.8-8.2c0.3-3.4,0.7-7.3,1.2-11.7
		c0.5-4.4,0.9-9.2,1.4-14.2c0.5-5,1-10.2,1.5-15.6s1-10.6,1.5-15.7l-17.1,4.8c-1.8,3.5-3.6,6.9-5.2,10.1c-1.7,3.2-3.2,6.2-4.6,9
		c-1.4,2.8-2.7,5.3-3.9,7.7c-1.2,2.3-2.2,4.3-3.1,6.1c-0.4,0.8-0.8,1.4-1.2,1.7c-0.4,0.4-0.7,0.6-1,0.6s-0.4-0.2-0.5-0.6
		c-0.1-0.4,0.1-1,0.4-1.7c1.7-4.4,3.7-9.3,6-14.5c2.3-5.3,4.8-10.9,7.5-16.8c-3.6,1-7.2,2-10.9,2.9c-3.7,1-7.6,2-11.7,3
		c-1.1,0.3-2,0.3-2.5,0.2c-0.6-0.1-0.8-0.4-0.8-0.8c0-0.4,0.3-0.8,0.8-1.3C48.7,67.3,49.6,66.8,50.7,66.5z M81.3,57.5l15.1-4.6
		l2.8-29.5c-3.1,5.8-6.1,11.6-9.2,17.3C87.1,46.4,84.1,52,81.3,57.5z"/>
	<path id="XMLID_41_" class="st2" d="M122.3,92.2c0.4-0.9,1.2-2.4,2.3-4.3c1.1-1.9,2.3-4.1,3.6-6.4c1.4-2.4,2.8-4.8,4.3-7.3
		c1.5-2.5,2.9-4.8,4.3-7c0.6-1,1.2-1.7,1.8-2c0.6-0.3,1-0.4,1.3-0.2c0.3,0.2,0.4,0.6,0.3,1.3c-0.1,0.7-0.5,1.5-1.2,2.6
		c-0.9,1.4-1.9,3.2-3.3,5.4c-1.3,2.2-2.7,4.6-4.1,7.1c-1.4,2.5-2.9,5-4.3,7.5c-1.4,2.5-2.7,4.7-3.9,6.5c-0.7,1.1-1.4,1.7-2.1,1.6
		c-0.6,0-1.1-0.6-1.3-1.7c-0.1-0.8-0.2-2-0.2-3.8c0-1.7,0.1-3.8,0.4-6.3c0.2-2.5,0.6-5.3,1-8.4c0.4-3.1,0.9-6.4,1.5-10
		c-1.1,2.7-2.3,5.4-3.7,8.3c-1.4,2.9-2.8,5.5-4.3,7.8c-1.5,2.3-3.1,4.1-4.6,5.4c-1.5,1.3-3,1.6-4.5,1c-1-0.4-1.7-1.4-1.9-2.8
		c-0.2-1.4-0.2-3.1,0.2-5c0.3-1.9,0.9-3.9,1.7-6.1c0.8-2.1,1.7-4.1,2.8-6c1.1-1.9,2.2-3.5,3.4-4.8c1.2-1.4,2.4-2.2,3.6-2.5
		c1.5-0.4,2.6-0.2,3.5,0.5c0.9,0.7,1.5,1.5,1.9,2.4c0.9-1.9,1.7-3.9,2.4-6c0.8-2,1.5-4.1,2.3-6.3c1.1-4.8,2.4-9.7,3.9-14.7
		c0.6-1.9,1.4-3.3,2.4-4.2c1-0.9,2-1.4,2.9-1.5c0.9,0,1.5,0.3,1.9,1.2c0.4,0.8,0.2,2-0.5,3.7c-0.3,0.8-0.8,2.1-1.4,3.9
		c-0.6,1.8-1.3,3.9-2,6.3c-0.7,2.4-1.5,5-2.3,7.9c-0.8,2.9-1.6,5.8-2.4,8.8c-0.8,3-1.5,5.9-2.3,8.9c-0.7,2.9-1.4,5.6-1.9,8.1
		c-0.5,2.5-1,4.7-1.3,6.7C122.3,89.7,122.2,91.2,122.3,92.2z M106.5,86.8c0.5,0.4,1.2,0.2,2.1-0.6c0.9-0.8,2-2.1,3.2-3.8
		c1.2-1.7,2.5-3.8,3.8-6.3c1.4-2.5,2.7-5.3,4.1-8.3c-0.8-0.7-1.7-0.8-2.8-0.3c-1.1,0.6-2.2,1.5-3.3,2.8c-1.1,1.3-2.2,2.8-3.3,4.6
		s-2,3.4-2.7,5.1c-0.7,1.7-1.2,3.1-1.5,4.4C106,85.6,106.1,86.4,106.5,86.8z"/>
	<path id="XMLID_44_" class="st2" d="M145.6,62.1c1.1,0.4,1.8,1.2,2.2,2.3c0.4,1.1,0.6,2.4,0.5,3.9c-0.1,1.5-0.4,3.1-0.9,4.8
		c-0.5,1.7-1.2,3.4-1.9,5.1c-0.8,1.7-1.7,3.3-2.7,4.8c-1,1.5-2,2.8-3.1,3.9c-1.1,1.1-2.1,1.8-3.2,2.2c-1.1,0.4-2.1,0.4-3,0
		c-1.2-0.6-2-1.8-2.3-3.5c-0.3-1.7-0.2-3.7,0.2-5.9c0.4-2.2,1.1-4.5,2.1-6.8c1-2.3,2.1-4.4,3.4-6.2c1.3-1.8,2.7-3.2,4.2-4.1
		C142.6,61.7,144.1,61.6,145.6,62.1z M134.7,86.3c0.6,0.3,1.2,0.1,2-0.6s1.6-1.5,2.3-2.7c0.8-1.1,1.4-2.4,2.1-3.9
		c0.6-1.5,1.1-2.9,1.4-4.2c0.3-1.3,0.4-2.5,0.3-3.5c-0.1-1-0.6-1.7-1.4-2c-0.6-0.2-1.3,0-2.1,0.7c-0.7,0.7-1.4,1.6-2.1,2.7
		s-1.3,2.5-1.9,3.9c-0.6,1.4-1,2.8-1.3,4.2c-0.3,1.3-0.4,2.5-0.4,3.5C133.8,85.4,134.1,86,134.7,86.3z"/>
	<path id="XMLID_47_" class="st2" d="M182.6,68.8c-1.2,2.2-2.4,4.2-3.8,6c-1.4,1.8-3,3.3-4.8,4.5c-1.2,0.9-2.4,1.3-3.3,1.4
		c-1,0-1.8-0.2-2.4-0.8c-0.6-0.6-1-1.4-1.2-2.5c-0.2-1.1,0-2.4,0.5-3.9c-0.9,0.4-1.9,1.2-3.2,2.4c-1.2,1.2-2.5,2.6-3.8,4.1
		c-1.3,1.5-2.5,3-3.6,4.6c-1.1,1.5-2,2.9-2.7,3.9c-0.7,1.1-1.3,1.9-1.8,2.3c-0.5,0.4-1,0.6-1.3,0.5c-0.3-0.1-0.5-0.5-0.5-1
		c0-0.6,0.1-1.3,0.3-2.2c1.4-4.7,2.6-8.7,3.7-11.9c1.1-3.2,1.9-5.9,2.6-7.9c0.8-2.4,1.5-4.3,2.1-5.7c-0.3,0.6-0.8,1.2-1.2,1.9
		c-0.4,0.6-0.8,1.3-1.3,2c-0.5,0.8-1,1.6-1.6,2.5c-0.5,0.8-0.9,1.3-1.4,1.5c-0.5,0.2-0.8,0.2-1.1,0c-0.3-0.2-0.4-0.6-0.4-1.2
		c0-0.6,0.2-1.2,0.7-2s1-1.6,1.5-2.4c0.5-0.8,1.1-1.8,1.7-2.8c0.6-1,1.3-2.1,2.1-3.3c0.8-1.2,1.7-2.6,2.8-4.1c1.1-1.5,2.2-2.5,3.3-3
		c1.1-0.6,2.1-0.8,2.9-0.6c0.8,0.2,1.4,0.6,1.7,1.3c0.3,0.7,0.2,1.6-0.4,2.7c-0.8,1.5-1.6,3.2-2.4,5c-0.9,1.8-1.7,3.7-2.6,5.6
		c-0.9,1.9-1.7,3.7-2.5,5.5c-0.8,1.8-1.5,3.4-2.1,4.9c-0.6,1.4-1.1,2.6-1.5,3.5c-0.4,0.9-0.6,1.4-0.6,1.6c0-0.1,0.4-0.8,1.1-1.9
		c0.7-1.1,1.6-2.5,2.8-4.1c1.2-1.6,2.5-3.3,4-5.1c1.5-1.8,3.1-3.5,4.8-5.1c1.7-1.6,3.3-2.6,4.6-3c1.4-0.4,2.5-0.5,3.3-0.2
		c0.8,0.3,1.2,0.7,1.4,1.4c0.1,0.7-0.2,1.4-1.1,2.1c-0.8,0.7-1.7,1.6-2.5,2.7c-0.9,1.1-1.7,2.2-2.3,3.4c-0.7,1.2-1.2,2.4-1.5,3.5
		c-0.3,1.1-0.3,2,0,2.7c0.7,0,1.4-0.4,2.3-1.1c0.8-0.7,1.6-1.6,2.4-2.6c0.8-1,1.6-2.1,2.3-3.3c0.8-1.2,1.4-2.3,2-3.3
		c0.6-1,1.2-1.7,1.7-2.1c0.5-0.4,0.9-0.5,1.2-0.3c0.3,0.2,0.4,0.6,0.3,1.4C183.6,66.9,183.2,67.7,182.6,68.8z"/>
	<path id="XMLID_49_" class="st2" d="M192.1,73.1c-0.1,0.7-0.3,1.7-0.5,2.8c-0.3,1.1-0.6,2.3-0.9,3.3c-0.3,1.1-0.6,2.1-0.9,3
		c-0.3,0.9-0.4,1.5-0.4,1.7c0.3,0,0.8-0.5,1.5-1.5c0.7-1,1.5-2.3,2.4-3.9c0.9-1.6,2-3.4,3.2-5.4c1.2-2,2.4-4,3.6-6
		c0.6-1,1.2-1.7,1.8-2.1c0.5-0.3,0.9-0.4,1.2-0.2c0.3,0.2,0.4,0.6,0.3,1.3c-0.1,0.7-0.4,1.6-1.1,2.6c-1.2,2.1-2.5,4.2-3.6,6.2
		c-1.2,2-2.3,3.8-3.3,5.5c-1,1.7-2,3.1-2.8,4.2c-0.8,1.2-1.5,2-2.1,2.5c-1,0.9-2,1.2-2.8,0.8c-0.8-0.4-1.3-1.3-1.4-2.7
		c-0.1-0.5-0.1-1.2-0.1-2c0-0.8,0.1-1.6,0.2-2.4c-0.6,1.5-1.4,2.9-2.3,4.3c-0.9,1.4-1.8,2.6-2.8,3.7c-1,1.1-2,1.8-3,2.4
		c-1,0.5-2.1,0.7-3.1,0.4c-0.9-0.3-1.5-1.2-1.8-2.6c-0.2-1.4-0.2-3.1,0.2-5.2c0.3-2,0.9-4.3,1.8-6.7c0.9-2.4,1.9-4.8,3.2-7.1
		c1.2-2.3,2.7-4.4,4.3-6.3c1.6-1.9,3.3-3.4,5.1-4.5c1.2-0.7,2.2-1.1,3.2-1.2c0.9-0.1,1.8,0,2.4,0.2c0.7,0.2,1.2,0.6,1.6,1.1
		c0.4,0.5,0.6,1,0.7,1.4c0.1,0.5,0,0.9-0.2,1.4c-0.2,0.4-0.6,0.7-1.2,0.8c-2.1,0.5-4.1,1.4-6,2.9c-1.8,1.5-3.5,3.2-5,5.1
		c-1.5,1.9-2.8,4-3.9,6.1c-1.1,2.1-2,4.1-2.6,5.9c-0.7,1.8-1.1,3.3-1.3,4.6c-0.2,1.2-0.1,1.9,0.3,2c0.4,0.1,1-0.1,1.6-0.6
		c0.7-0.6,1.4-1.3,2.1-2.3c0.8-1,1.5-2.2,2.3-3.5c0.8-1.3,1.5-2.7,2.1-4.1c0.6-1.4,1.1-2.7,1.6-4.1c0.4-1.3,0.7-2.5,0.8-3.5
		c0-0.8,0.4-1.3,1-1.6c0.6-0.3,1.3-0.4,2-0.3c0.7,0.2,1.3,0.5,1.9,1.1C192,71.2,192.2,72,192.1,73.1z"/>
	<path id="XMLID_51_" class="st2" d="M203.6,64.4c0.9-0.1,2.1-0.2,3.5-0.2c1.4-0.1,3-0.2,4.7-0.5c1.7-0.3,3.6-0.8,5.5-1.4
		c2-0.7,4-1.7,6.1-3c2.1-1.3,3.7-2,4.7-1.9c1.1,0.1,1.6,0.5,1.7,1.4c0.1,0.8-0.3,1.9-1.1,3.3s-2.1,2.7-3.8,3.9
		c-1.2,0.9-2.4,1.9-3.8,3.1c-1.4,1.1-2.8,2.3-4.3,3.6c-1.5,1.3-3,2.6-4.4,3.9c-1.5,1.3-2.9,2.6-4.3,3.9c-3.2,3-6.5,6-9.8,9.1
		c2.4-1.2,4.5-2.4,6.4-3.5c1.9-1.2,3.7-2.1,5.4-2.8c1.7-0.7,3.4-1.2,5.1-1.3c1.7-0.1,3.5,0.3,5.5,1.2c0.7-1,1.5-2.2,2.4-3.4
		c0.9-1.2,1.8-2.6,2.7-3.9c0.9-1.4,1.9-2.8,2.8-4.2c0.9-1.4,1.8-2.8,2.7-4.2c0.6-1,1.2-1.7,1.8-2.1c0.5-0.3,1-0.4,1.3-0.2
		c0.3,0.2,0.4,0.6,0.3,1.3c-0.1,0.7-0.5,1.6-1.1,2.6c-2.2,3.6-4.3,7-6.2,10c-2,3-3.6,5.6-4.8,7.7c-0.5,0.9-1,1.5-1.6,1.9
		c-0.5,0.4-1.1,0.7-1.6,0.7c-0.5,0.1-1,0-1.4-0.1c-0.4-0.2-0.8-0.4-1-0.8c-0.3-0.4-1-0.7-2.3-0.9c-1.2-0.2-2.9-0.2-4.8,0.1
		c-2,0.3-4.3,1.1-6.9,2.2c-2.6,1.1-5.4,2.9-8.3,5.2c-0.9,0.7-1.7,1.1-2.3,1.3c-0.6,0.1-1,0-1.2-0.4c-0.2-0.4-0.2-0.9,0-1.7
		c0.2-0.8,0.8-1.6,1.6-2.6c0.4-0.5,1-1.2,1.8-2.2s1.8-2.1,2.9-3.3c1.1-1.2,2.2-2.6,3.5-4c1.2-1.4,2.5-2.9,3.7-4.3
		c2.9-3.3,6.1-6.9,9.5-10.9c-1.6,0.2-3.2,0.4-4.6,0.5c-1.2,0.1-2.5,0.2-3.9,0.3c-1.4,0-2.5,0-3.3-0.1c-0.6-0.1-1-0.3-1.3-0.6
		c-0.2-0.3-0.3-0.6-0.2-1c0.1-0.3,0.4-0.7,0.8-0.9C202.3,64.7,202.9,64.5,203.6,64.4z"/>
	<path id="XMLID_53_" class="st2" d="M231.2,92c0.6,0.2,1.4,0,2.4-0.5c1-0.6,2.1-1.4,3.3-2.5c1.2-1.1,2.5-2.5,3.8-4.1
		s2.8-3.4,4.2-5.3c1.4-1.9,2.8-3.9,4.1-6c1.4-2.1,2.6-4.2,3.8-6.4c0.6-1,1.1-1.7,1.7-2.1c0.6-0.4,1-0.5,1.3-0.3
		c0.3,0.2,0.4,0.6,0.4,1.4c0,0.7-0.4,1.6-1,2.7c-2.1,3.5-4.2,6.8-6.3,10.1c-2.1,3.2-4.3,6.1-6.4,8.6c-2.1,2.5-4.2,4.4-6.2,5.9
		c-2,1.4-4,2-5.8,1.8c-1.2-0.1-2.1-0.9-2.7-2.4c-0.5-1.5-0.8-3.3-0.8-5.5c0-2.2,0.3-4.7,0.8-7.4c0.5-2.7,1.2-5.3,2-7.9
		c0.9-2.6,1.9-4.9,3-7.1c1.1-2.1,2.4-3.8,3.6-4.9c1.1-0.9,2.1-1.5,3-1.7c0.9-0.2,1.8-0.1,2.5,0.3c0.8,0.4,1.4,1.1,1.8,2
		c0.5,0.9,0.8,2.1,0.9,3.5c0.2,1.9,0,4-0.5,6.1c-0.5,2.1-1.2,4.1-2.2,6c-1,1.8-2.1,3.4-3.4,4.6c-1.3,1.2-2.7,1.9-4.2,2
		c-1.2,0-2.1-0.3-2.8-1c-0.3,1.3-0.6,2.5-0.8,3.7c-0.2,1.2-0.3,2.3-0.4,3.2c0,0.9,0,1.7,0.2,2.3C230.5,91.5,230.8,91.9,231.2,92z
		 M239.2,65.9c-0.6,0.4-1.3,1.1-2,2c-0.7,0.9-1.3,1.9-1.9,3.1c-0.6,1.2-1.2,2.4-1.7,3.8c-0.5,1.4-1,2.7-1.4,4.1
		c0.9,0.7,1.8,0.8,2.8,0.2c1-0.6,1.9-1.5,2.7-2.9c0.8-1.4,1.3-3,1.7-4.8C239.6,69.5,239.6,67.7,239.2,65.9z"/>
	<path id="XMLID_56_" class="st2" d="M274.9,68.8c-1.3,1.9-2.7,3.9-4.2,5.8c-1.5,2-2.9,3.8-4.4,5.6c-1.5,1.8-3,3.4-4.4,5
		c-1.5,1.5-2.9,2.9-4.2,4.1c-1.3,1.2-2.4,2-3.3,2.4c-0.9,0.4-1.7,0.5-2.2,0.4c-0.5-0.2-0.9-0.7-1-1.4c-0.1-0.8,0-1.7,0.4-2.9
		c0.5-1.7,1.1-3.9,1.9-6.4c0.8-2.6,1.6-5.2,2.4-8c0.8-2.7,1.7-5.3,2.4-7.8c0.8-2.5,1.5-4.5,2.1-6c-0.6,1-1.3,2.2-2.2,3.8
		c-0.8,1.5-1.8,3.3-2.9,5.2c-0.6,1.1-1.2,2-1.9,2.5c-0.7,0.6-1.2,0.8-1.6,0.7c-0.4-0.1-0.5-0.5-0.5-1.3s0.5-1.9,1.4-3.4
		c0.6-1,1.4-2.5,2.5-4.4c1.1-1.9,2.2-4.1,3.5-6.5c1.3-2.4,2.6-4.9,4-7.5c1.4-2.6,2.7-5.1,4-7.5c1.3-2.4,2.5-4.6,3.5-6.6
		c1.1-2,1.9-3.6,2.5-4.7c0.6-1.1,1.4-2,2.3-2.7c1-0.7,1.9-1,2.7-1s1.5,0.4,1.9,1.1c0.5,0.8,0.5,1.9,0.1,3.5
		c-0.4,1.6-1.3,3.7-2.7,6.3c-1.5,2.6-3.7,5.7-6.7,9.4c-0.6,1.2-1.2,2.9-2.1,5c-0.8,2.1-1.7,4.3-2.6,6.9c-0.9,2.5-1.9,5.1-2.9,7.9
		c-1,2.7-2,5.4-2.9,8c-0.9,2.6-1.8,5.1-2.6,7.3c-0.8,2.3-1.5,4.2-2,5.7c2.3-2.4,4.5-4.8,6.6-7.1c0.9-1,1.8-2.1,2.8-3.2
		c1-1.1,2-2.2,2.9-3.4c0.9-1.1,1.8-2.3,2.7-3.4c0.9-1.1,1.6-2.2,2.3-3.3c0.6-1,1.3-1.7,1.9-2c0.6-0.3,1-0.4,1.3-0.2
		c0.3,0.2,0.4,0.6,0.3,1.3C276,66.9,275.6,67.8,274.9,68.8z"/>
</g>
</svg>
