<?xml version="1.0" standalone="no"?>
<!DOCTYPE svg PUBLIC "-//W3C//DTD SVG 1.1//EN" "http://www.w3.org/Graphics/SVG/1.1/DTD/svg11.dtd">
<svg xmlns="http://www.w3.org/2000/svg">
<metadata>Copyright (C) 2020 by original authors @ fontello.com</metadata>
<defs>
<font id="adorazel_online" horiz-adv-x="1000" >
<font-face font-family="adorazel_online" font-weight="400" font-stretch="normal" units-per-em="1000" ascent="850" descent="-150" />
<missing-glyph horiz-adv-x="1000" />
<glyph glyph-name="html" unicode="&#xe800;" d="M59 850l81-900 360-100 360 100 81 900c0 0-882 0-882 0z m708-294h-267-156l10-113h146 257l-31-339-226-63 0 0-226 63-16 177h111l8-92 123-33 0 0 0 0 123 33 13 143h-136l0 0h-247l-29 334h276 276l-9-110z" horiz-adv-x="1000" />

<glyph glyph-name="react" unicode="&#xe801;" d="M500 440c49 0 90-41 90-90s-41-90-90-90-90 41-90 90 41 90 90 90z m347 58c-18 7-38 13-58 19 5 20 9 40 12 60 17 104-1 177-51 206-50 29-123 8-205-59-15-12-30-26-45-40-15 14-30 28-45 40-82 67-155 88-205 59-50-29-68-102-51-206 3-20 7-40 12-60-20-6-40-12-58-19-99-38-153-90-153-148 0-58 54-110 153-148 18-7 38-13 58-19-5-20-9-40-12-60-17-104 1-177 51-206 15-9 31-13 49-13 44 0 98 24 156 72 15 12 30 26 45 40 15-14 30-28 45-40 58-48 112-72 156-72 18 0 34 4 49 13 50 29 68 102 51 206-3 20-7 40-12 60 20 6 40 12 58 19 99 38 153 90 153 148 0 58-54 110-153 148z m-277 196c50 42 96 63 130 63 12 0 22-2 31-7 34-20 46-81 32-168-3-18-7-37-12-56-42 10-89 17-137 21-28 40-57 77-87 109 14 14 28 27 43 38z m72-426c-15-28-32-54-49-79-30-2-61-3-93-3s-62 1-93 3c-17 25-33 51-49 79-16 27-30 55-43 82 13 27 27 55 43 82 16 28 32 54 49 79 31 2 62 3 93 3 32 0 63-1 93-3 17-25 34-51 49-79 16-27 31-55 44-82-13-27-28-55-44-82z m64 37c14-32 26-64 35-94-31-7-64-13-99-17 12 18 23 36 34 55 10 18 21 37 30 56z m-206-233c-22 23-43 49-64 77 21-1 42-2 64-2 22 0 43 1 64 2-21-28-42-54-64-77z m-142 122c-35 4-68 10-99 17 9 30 21 62 35 94 9-19 20-38 30-56 11-19 22-37 34-55z m-64 201c-14 32-26 64-35 94 31 7 64 13 99 17-12-18-23-36-34-55-10-18-21-37-30-56z m206 233c22-23 43-49 64-77-21 1-42 2-64 2-22 0-43-1-64-2 21 28 42 54 64 77z m176-177c-11 19-22 37-34 55 35-4 68-10 99-17-9-30-21-62-35-94-9 19-20 38-30 56z m-439 132c-14 86-2 147 32 167 9 5 19 7 31 7 34 0 80-21 130-62 14-12 29-25 43-39-30-32-59-68-87-108-49-5-95-12-138-22-5 20-8 38-11 57z m-70-345c-82 31-128 72-128 112s46 81 128 112c17 6 35 12 55 18 12-42 29-86 50-130-21-44-37-88-50-130-20 6-38 12-55 18z m263-232c-67-56-126-76-161-56-34 20-46 81-32 167 3 19 7 37 12 57 42-10 89-17 137-22 28-39 57-76 87-108-14-14-28-27-43-38z m333 111c14-86 2-147-32-167-9-5-19-7-31-7-34 0-80 21-130 62-14 12-29 25-43 39 30 32 59 68 87 108 49 5 95 12 138 22 5-20 8-38 11-57z m70 121c-17-6-35-12-55-18-12 42-29 86-50 130 21 44 37 88 50 130 20-6 38-12 55-18 82-31 128-72 128-112s-46-81-128-112z" horiz-adv-x="1000" />

<glyph glyph-name="redux" unicode="&#xe802;" d="M477 805c-140 0-250-163-250-371 0-94 24-177 61-242-2-7-4-15-4-24 0-44 36-79 80-79s79 35 79 79-35 80-79 80c-1 0-2 0-3 0-26 50-43 115-43 186 0 152 73 280 159 280 59 0 111-59 139-144 33-6 67-15 101-26-31 152-125 261-240 261z m-5-296c-44 0-80-36-80-80s36-79 80-79c31 0 58 18 71 44 58-3 124-20 185-53 89-48 157-122 176-193 9-37 6-69-11-96-32-53-110-74-199-63-27-27-57-51-89-74 45-13 90-20 133-20 101 0 188 37 233 110 29 48 36 105 20 166-25 96-108 189-220 250-81 44-166 65-243 65-15 14-34 23-56 23z m-331-147c-67-55-114-122-132-191-17-60-10-118 20-166 45-72 132-109 233-109 77 0 162 21 244 65 78 42 140 100 180 163 37 8 64 40 64 78 0 44-35 80-79 80s-80-36-80-80c0-14 4-28 11-40-32-46-81-89-140-121-141-77-304-71-356 12-16 26-19 58-10 95 10 37 34 75 66 110-10 32-17 67-21 104z" horiz-adv-x="1000" />

<glyph glyph-name="nodejs" unicode="&#xe803;" d="M459 839c25 15 57 15 82 0 124-70 249-140 374-211 23-13 39-39 39-66v-424c0-28-17-55-42-68-124-70-249-140-373-210-25-14-58-13-83 3-37 21-74 43-111 64-8 5-17 8-22 16 5 6 13 7 20 10 16 5 30 13 44 20 4 3 8 2 12 0 32-18 63-37 95-55 7-4 14 1 20 4 122 69 244 138 366 207 4 2 7 7 6 12 0 139 0 279 0 419 1 6-3 11-8 13-123 69-247 139-371 209-4 3-10 3-14 0-124-70-248-140-372-209-5-3-8-8-7-13 0-140 0-280 0-420-1-5 2-9 6-12 33-18 67-37 100-56 18-10 41-16 62-8 18 7 30 25 30 44 0 139 0 278 0 417 0 6 6 11 12 11 15 0 31 0 47 0 7 0 11-7 11-13 0-140 0-280-1-420 0-37-15-77-49-96-43-22-95-17-137 4-37 18-71 40-107 59-25 13-42 40-42 68v424c0 27 16 54 40 67 125 70 249 140 373 210z m108-293c55 3 113 2 161-25 38-20 59-63 60-105-1-6-7-9-13-9-15 0-31 0-47 1-6-1-10 5-11 11-5 20-16 40-35 50-29 15-62 14-94 13-23-1-48-3-67-16-15-11-20-31-14-48 5-12 19-16 30-20 65-17 134-15 198-37 27-10 53-27 62-55 12-37 6-82-20-112-21-24-53-38-84-45-41-9-85-9-127-5-39 4-80 15-111 42-26 22-39 58-38 92 1 6 6 10 12 9 16 0 32 0 47 0 7 1 11-5 12-11 3-19 10-39 27-50 32-21 72-20 109-20 31 1 65 1 90 22 13 11 17 30 13 47-4 14-18 20-31 25-64 20-134 13-198 36-26 9-51 26-61 53-14 37-8 84 22 113 28 29 69 40 108 44l0 0z" horiz-adv-x="1000" />

<glyph glyph-name="php" unicode="&#xe804;" d="M79 496h149c43-1 75-13 94-38s26-58 20-101c-3-20-9-39-18-58-8-19-20-36-35-51-18-19-38-31-59-36s-43-8-66-8h-66l-21-105h-77l79 397 0 0m65-64l-33-166c2 0 4 0 6 0 3 0 5 0 8 0 35-1 65 3 89 10 23 8 39 35 47 81 7 39 0 61-20 67-19 6-44 9-73 9-5-1-9-1-13-1-4 0-8 0-12 0l1 0m285 169h76l-21-105h68c38-1 66-9 85-24 18-14 24-42 16-84l-37-184h-77l35 176c4 18 3 32-3 39-6 8-19 12-39 12l-61 0-45-227h-77l80 397 0 0m306-105h149c43-1 75-13 94-38 20-25 26-58 20-101-3-20-9-39-18-58-8-19-20-36-35-51-18-19-38-31-59-36s-43-8-65-8h-67l-21-105h-77l79 397 0 0m65-64l-33-166c2 0 4 0 6 0 3 0 6 0 8 0 36-1 65 3 89 10 23 8 39 35 47 81 7 39 0 61-20 67-19 6-44 9-73 9-5-1-9-1-13-1-4 0-8 0-12 0l1 0" horiz-adv-x="1000" />

<glyph glyph-name="modx" unicode="&#xe805;" d="M125 841v-501l78-50-208-316h522l48 72 313-188v515l-76 47 194 306h-516l-48-67-307 182z m84-146l175-104 256-153-381-85-50 33v309z m314-52h321l-105-166-234 139 18 27z m152-283l-202-303h-323l143 218 382 85z m90-16l29-17v-321l-181 108 152 230z" horiz-adv-x="1000" />

<glyph glyph-name="ecmascript" unicode="&#xe806;" d="M936 850h-872c-35 0-64-29-64-64v-873c0-34 29-63 64-63h873c34 0 63 29 63 64v872c0 35-29 64-64 64z m17-936l0 0c-1-9-8-16-17-16h-872c-9 0-16 7-16 16v872c0 9 7 16 16 16h873c8 0 16-7 16-16v-872z m-406 36h-259v448h259v-78h-163v-98h151v-78h-151v-116h163v-78z m358 124c0-40-14-72-44-95-29-24-69-35-121-35-48 0-90 9-127 27v88c30-13 56-23 77-29 21-5 40-8 57-8 21 0 37 4 48 12 11 8 17 20 17 36 0 9-2 16-7 23-5 7-13 14-22 20-10 6-29 16-58 30-28 13-48 26-62 37-14 12-24 26-33 42-8 16-12 34-12 55 0 40 14 71 41 94 26 22 64 34 111 34 24 0 46-3 67-9 21-5 43-13 66-23l-30-74c-24 10-44 17-60 21-15 4-31 6-46 6-18 0-32-5-41-13-10-8-15-19-15-33 0-8 2-15 6-22 4-6 10-12 19-18 8-6 28-16 60-31 42-20 71-40 86-60 15-21 23-45 23-75z" horiz-adv-x="1000" />

<glyph glyph-name="mail" unicode="&#xe807;" d="M929 11v428q-18-20-39-36-149-115-238-189-28-24-46-37t-48-28-57-13h-2q-26 0-57 13t-48 28-46 37q-88 74-238 189-21 16-39 36v-428q0-7 6-13t12-5h822q7 0 12 5t6 13z m0 586v14t-1 7-1 7-3 5-5 4-8 2h-822q-7 0-12-6t-6-12q0-94 83-159 107-84 223-176 4-3 20-17t25-21 25-17 28-16 24-5h2q11 0 24 5t28 16 25 17 25 21 20 17q116 92 224 176 30 24 56 65t26 73z m71 21v-607q0-37-26-63t-63-27h-822q-36 0-63 27t-26 63v607q0 37 26 63t63 26h822q37 0 63-26t26-63z" horiz-adv-x="1000" />

<glyph glyph-name="search" unicode="&#xe808;" d="M643 386q0 103-73 176t-177 74-177-74-73-176 73-177 177-73 177 73 73 177z m286-465q0-29-22-50t-50-21q-30 0-50 21l-191 191q-100-69-223-69-80 0-153 31t-125 84-84 125-31 153 31 152 84 126 125 84 153 31 153-31 125-84 84-126 31-152q0-123-69-223l191-191q21-21 21-51z" horiz-adv-x="928.6" />

<glyph glyph-name="css" unicode="&#xe809;" d="M64 850l79-900 357-100 357 100 79 900h-872z m702-294l-10-113-30-339-226-63 0 0-226 63-16 177h111l8-92 123-33 0 0 123 33 16 153-387-1-11 105 408 5 8 112-427-1-6 104h552l-10-110z" horiz-adv-x="1000" />

<glyph glyph-name="javascript" unicode="&#xe80a;" d="M60 850l82-899 357-101 360 102 81 898-880 0z m407-782l-258 69 0 106 169-47 1 461h88v-589z m343 484l-187 0v-154l175 19-24-288v0l-237-61-2 104 172 46 2 85-170-29-4 382 282 1-7-105z" horiz-adv-x="1000" />

<glyph glyph-name="mongodb" unicode="&#xe80b;" d="M691 549c-22 60-54 116-93 166-33 43-88 81-103 135-10-34-46-61-70-86-25-27-49-55-69-87-45-74-67-159-76-244-20-178 49-337 186-451 4 19 10 112 30 114 20 1 19-46 22-57 6-26 11-32 28-52 162 142 221 359 145 562z m-233-434c-5-9-6-44-12-47-78 95-129 203-120 330 8 113 40 258 132 335 8-101 0-207 0-309 0-52 0-105 0-158 0-26 0-52 0-79 0-15 8-59 0-72z m38-37c4-19 8-39 12-58 5-20 9-24 24-37-11-17-11-36-12-55-2-24-2-49-3-74 0-1-1-2-1-4-8 3-15 5-23 7-1 1-2 3-2 5-1 21-3 43-4 64-1 15-5 30-10 44-1 2-1 4 0 6 9 32 15 64 18 97 0 2 1 4 1 5z" horiz-adv-x="1000" />

<glyph glyph-name="expressjs" unicode="&#xe80c;" d="M1000 75c-36-9-59 0-79 30l-144 199-20 27-168-227c-19-27-39-39-75-29l215 288-200 261c34 6 58 3 79-28l149-201 150 200c19 27 40 38 74 28l-77-103-105-137c-13-16-11-26 1-41l200-267z m-1000 293l18 86c48 171 244 242 379 136 79-62 98-150 94-248h-445c-6-177 121-284 284-230 57 20 90 64 107 120 9 28 23 32 49 24-13-69-44-128-108-164-95-55-232-37-304 39-43 44-61 100-68 160-2 9-4 19-6 28 0 16 0 33 0 49l0 0z m47 12h402c-2 128-82 219-191 220-120 0-206-88-211-220l0 0 0 0z" horiz-adv-x="1000" />

<glyph glyph-name="mysql" unicode="&#xe80d;" d="M240 71h-38c-2 65-5 126-11 184h-1l-59-184h-29l-58 184h-1c-4-55-7-117-8-184h-35c2 82 8 159 17 230h48l56-169h0l56 169h46c10-84 16-160 17-230m168 170c-16-85-37-147-62-186-20-30-42-44-66-44-7 0-15 2-24 5v21c5-1 10-1 16-1 11 0 20 3 27 9 8 8 12 16 12 25 0 7-3 20-9 40l-43 131h38l31-98c6-23 9-38 8-47 17 44 28 93 35 145l37 0 0 0 0 0z m513-170h-109v230h37v-202h72v-28z m-138-6l-42 21c3 3 7 7 10 11 18 21 27 52 27 94 0 76-30 114-90 114-29 0-52-10-68-29-18-21-27-52-27-94 0-40 8-70 24-89 14-17 36-25 66-25 11 0 21 1 30 4l55-33 15 26z m-137 52c-10 15-14 39-14 72 0 58 17 88 53 88 18 0 32-7 40-21 10-15 14-39 14-72 0-59-17-88-53-88-18 0-32 7-40 21m-69 18c0-20-7-36-22-48-14-13-33-19-57-19-23 0-45 7-66 21l10 20c18-9 35-13 49-13 14 0 25 3 33 9 8 6 13 15 13 25 0 14-10 26-27 36-17 8-49 27-49 27-17 13-26 26-26 49 0 19 7 34 20 45 13 12 30 17 50 17 22 0 41-5 59-17l-9-19c-15 6-30 9-44 9-12 0-21-3-28-8-6-6-10-13-10-22 0-14 10-26 28-36 16-8 49-27 49-27 18-13 27-27 27-49m391 244c-23 0-40-2-54-8-5-2-11-2-12-7 2-2 3-6 5-9 3-6 9-13 14-17 6-5 12-9 18-13 11-7 23-11 33-17 7-4 13-9 19-13 3-2 5-6 9-7v0c-2 3-3 7-5 9l-8 8c-8 11-18 21-29 29-9 6-29 14-32 24l-1 1c6 1 14 3 19 5 10 2 19 2 28 4 5 1 9 3 14 4v2c-5 5-9 12-14 17-15 12-30 24-46 34-9 6-20 9-29 14-4 2-9 3-11 5-5 6-8 14-12 22-8 15-15 32-22 48-5 11-8 22-15 32-28 47-59 76-107 104-11 6-23 8-36 11l-21 2c-4 2-9 7-13 9-15 10-56 32-68 3-8-18 11-36 17-45 5-6 11-13 15-21 2-4 2-9 4-14 4-13 9-26 14-38 3-6 7-12 11-17 2-3 6-4 7-9-4-6-5-14-7-21-10-32-6-71 8-94 5-7 15-22 29-16 13 5 10 21 14 35 1 3 0 5 2 7v0c4-8 8-16 11-23 9-14 24-28 36-38 7-5 12-13 21-16v0h-1c-1 3-4 4-6 6-5 5-11 11-15 17-11 15-22 33-31 51-4 8-8 18-12 26-1 4-1 9-4 10-4-6-10-11-14-19-5-12-5-26-7-42l-1 0c-9 2-12 11-16 19-8 20-10 52-2 74 2 6 10 25 7 30-2 6-8 9-11 13-3 5-7 12-10 18-6 15-10 32-17 48-3 7-9 15-14 21-5 8-11 13-15 22-2 3-4 8-2 12 1 2 2 3 4 3 4 3 14-1 18-2 10-5 19-8 27-14 4-3 8-8 13-10h6c9-2 19 0 27-3 15-5 29-11 41-19 36-23 66-56 86-95 4-7 5-12 8-19 6-14 13-28 19-41 6-13 12-27 20-38 4-5 21-9 28-12 6-2 15-4 20-7 9-6 19-13 27-19 6-4 20-11 21-16m-284 242c-4 0-8-1-12-2v0h1c2-5 6-8 9-12 2-4 4-9 6-13l1 0c4 3 6 8 6 14-2 2-2 4-4 6-2 3-5 4-7 7m310-550h6v28h-9l-7-19-7 19h-9v-28h6v21h0l8-21h4l8 21 0-21 0 0z m-46 0h6v23h8v5h-22v-5h8l0-23 0 0z" horiz-adv-x="1000" />

<glyph glyph-name="extjs" unicode="&#xe80e;" d="M516 831c3-1 6-2 9-4 29-15 48-23 54-53 10-48 42-75 86-90 32-10 61-6 90 10 43 24 59 21 96-16 35-35 41-59 17-98-40-67 3-166 71-184 56-15 79-87 46-136-8-12-24-20-38-24-56-16-87-55-93-110-3-23 5-49 12-72 8-22 23-42 9-70l-151 143c53 72 74 152 60 238-12 71-44 132-100 179-107 90-256 92-362 6-101-81-166-260-48-424l-143-147c-16 14-16 30-11 47 2 8 6 15 10 22 30 52 20 100-11 147-15 22-37 32-62 40-54 18-76 99-37 142 9 10 23 18 36 20 75 14 115 117 80 178-28 47-24 69 23 113 29 28 48 31 82 10 42-26 83-23 124 0 26 13 45 33 52 61 9 41 29 68 73 73 9 0 8 1 26-1z m347-963h-725l362 364c0 0 363-364 363-364z" horiz-adv-x="1000" />

<glyph glyph-name="edit" unicode="&#xe80f;" d="M966 671q24-23 24-55t-24-55l-185-185 0-469q0-21-15-36t-37-16l-676 0q-22 0-37 16t-16 36l0 677q0 21 16 37t37 15l468 0 185 185q24 24 55 24t55-24z m-523-486l327 328-112 112-328-327z m-134 69l4-86 88-4z m369-295l0 312-167-160q-20-20-63-33t-80-14l-159 0 0 159q0 41 11 82t31 61l165 167-312 0 0-574 574 0z m130 590l67 67-114 114-67-67z" horiz-adv-x="990" />

<glyph glyph-name="publish" unicode="&#xe810;" d="M900 800q42 0 71-30t29-70l0-600q0-42-29-71t-71-29l-198 0 0 98 200 0 0 462-802 0 0-462 200 0 0-98-200 0q-40 0-70 29t-30 71l0 600q0 40 30 70t70 30l800 0z m-770-168q38 0 38 38 0 16-11 26t-27 10-27-11-11-25q0-16 11-27t27-11z m100 0q38 0 38 38 0 16-11 26t-27 10-27-11-11-25q0-16 11-27t27-11z m672 6l0 62-602 0 0-62 602 0z m-404-198l242-240-150 0 0-300-184 0 0 300-150 0z" horiz-adv-x="1000" />

<glyph glyph-name="unpublish" unicode="&#xe811;" d="M0 700l0-600c0-28 10-52 30-71s43-29 70-29h133l-33 33-66 65h-34v462h802v-462h-40l-66-65-33-33h137c28 0 52 10 71 29s29 43 29 71v600c0 27-10 50-29 70s-43 30-71 30h-800c-27 0-50-10-70-30s-30-43-30-70z m300 0h602v-62h-602v62z m-108-30c0 9 4 18 11 25s16 11 27 11 20-3 27-10 11-15 11-26c0-25-13-38-38-38-11 0-20 4-27 11s-11 16-11 27z m-100 0c0 9 4 18 11 25s16 11 27 11 20-3 27-10 11-15 11-26c0-25-13-38-38-38-11 0-20 4-27 11s-11 16-11 27z m498-280v-300h150l-242-240-242 240h150v300h184z" horiz-adv-x="1000" />

<glyph glyph-name="browse" unicode="&#xe812;" d="M923 830c0 7 0 13 0 20-283 0-564 0-846 0 0-334 0-666 0-1000 257 0 512 0 770 0 0 8 0 15 0 22 0 138 0 275 0 412 0 30-8 62 3 87 10 26 39 44 60 65 0 0 1 1 1 1 10 8 12 17 12 30 0 121 0 242 0 363z m-154-879c0-7 0-14 0-24-206 0-410 0-615 0 0 282 0 563 0 845 178 0 357 0 538 0 0-6 0-13 0-19 0-96 0-192 1-288 0-9 5-20 11-26 20-23 51-42 62-68 11-27 3-61 3-92 0-110 0-219 0-328z m58 510c-7-5-11-13-17-21-15 15-26 26-37 38-2 3-4 7-4 11 0 89 0 177 0 265 0 6 0 11 0 18 26 0 50 0 77 0 0-6 0-13 0-19 0-81 0-162 1-244 0-20-4-35-20-48z m-303 0c-95 21-183-27-209-115-15-51-9-100 17-147-36-35-70-69-104-102 19-19 37-37 55-56 30 30 61 60 90 90 9 10 16 12 29 6 89-44 229-10 250 131 13 89-43 174-128 193z m-44-265c-58 0-96 38-96 96 0 58 39 97 97 97 57 0 95-39 95-96 1-58-38-97-96-97z" horiz-adv-x="1000" />

<glyph glyph-name="soc-fb" unicode="&#xe813;" d="M933 600l-433 250-433-250 0-500 433-250 433 250 0 500z m-433-679l-371 215 0 428 371 214 371-214 0-429-371-214z m42 566c5 7 16 10 31 10h41v70c-14 2-34 3-60 3-30 0-55-9-73-27-19-18-28-44-28-76v-58h-67v-78h67v-201h81v201h67l11 78h-78v50c0 13 3 22 8 28z" horiz-adv-x="1000" />

<glyph glyph-name="soc-gh" unicode="&#xe814;" d="M933 600l-433 250-433-250 0-500 433-250 433 250 0 500z m-433-679l-371 215 0 428 371 214 371-214 0-429-371-214z m-68 402c-6 6-13 9-20 9-8 0-15-3-20-9s-10-13-12-21-4-15-4-23c0-7 2-15 4-22s6-15 12-21c5-7 12-10 20-10s14 3 20 10 9 13 11 21 4 15 4 22c0 8-1 15-4 23s-6 15-11 21z m260 115c5 15 8 30 8 46 0 22-5 42-14 60-20 0-37-3-52-10-16-8-33-19-52-34-24 6-50 9-77 9-30 0-59-3-86-10-20 16-37 27-52 35-15 7-33 11-53 11-9-19-14-39-14-61 0-16 3-31 8-47-25-29-38-65-38-109 0-38 6-69 17-92 6-12 14-22 24-31s21-17 33-23c13-6 26-10 38-14 13-4 27-7 42-8 16-2 29-3 41-4 12 0 25 0 39 0 17 0 33 0 47 1 13 1 29 3 47 6s33 7 47 13 27 13 39 24c12 10 22 22 29 37 11 22 17 53 17 91 0 44-13 80-38 110z m-33-201c-6-12-13-22-22-29-9-7-20-12-34-16-13-4-26-7-39-8-12-2-26-2-41-2h-46c-15 0-29 0-41 2-13 1-26 4-39 8-14 4-25 9-34 16-9 7-16 17-22 29-6 12-9 26-9 42 0 22 6 41 19 57 13 15 30 23 51 23 8 0 26-2 54-6 13-2 28-3 44-3 16 0 30 1 43 3 29 4 47 6 54 6 22 0 39-8 52-23 13-16 19-35 19-57 0-16-3-30-9-42z m-50 86c-6 6-13 9-20 9s-15-3-20-9-10-13-12-21c-3-8-4-15-4-23 0-7 2-15 4-22 2-8 6-15 12-21s12-10 20-10 14 3 20 10 9 13 11 21c3 7 4 15 4 22 0 8-1 15-4 23-2 8-6 15-11 21z" horiz-adv-x="1000" />

<glyph glyph-name="soc-ig" unicode="&#xe815;" d="M933 600l-433 250-433-250 0-500 433-250 433 250 0 500z m-433-679l-371 215 0 428 371 214 371-214 0-429-371-214z m203 632c-11 11-24 17-39 17h-328c-15 0-28-6-39-17s-17-24-17-39v-328c0-15 6-28 17-39s24-17 39-17h328c15 0 28 6 39 17s17 24 17 39v328c0 15-6 28-17 39z m-265-142c17 17 38 25 62 25s46-8 63-25c17-16 26-37 26-60 0-24-9-44-26-61-17-17-38-25-63-25-24 0-45 9-62 25-17 17-26 37-26 61 0 23 9 44 26 60z m232-213c0-5-2-9-5-12-3-4-8-5-12-5h-307c-5 0-9 1-12 5-3 3-5 7-5 12v186h40c-3-12-5-25-5-38 0-36 13-68 40-94 27-25 59-38 96-38 25 0 48 6 69 17s38 28 50 49c12 20 18 42 18 66 0 13-2 26-5 38h38v-186z m0 256c0-6-2-10-6-14s-8-6-14-6h-49c-6 0-11 2-14 6s-6 8-6 14v47c0 6 2 10 6 14 3 4 8 6 14 6h49c6 0 11-2 14-6 4-4 6-9 6-14v-47z" horiz-adv-x="1000" />

<glyph glyph-name="soc-in" unicode="&#xe816;" d="M933 600l-433 250-433-250 0-500 433-250 433 250 0 500z m-433-679l-371 215 0 428 371 214 371-214 0-429-371-214z m-174 649c-17 0-30-5-40-15-11-9-16-22-16-36s5-27 15-37c10-10 23-15 40-15h0c17 0 31 5 41 15 10 10 15 22 15 37 0 14-5 27-15 36-10 10-24 15-40 15z m-50-143h99v-297h-99v297z m423-27c-21 22-48 34-83 34-12 0-24-2-34-5-10-3-19-7-26-13s-13-11-17-15c-4-5-8-10-11-16v-1h-1c0 0 0 1 1 1v42h-99l0-14c0-10 0-40 0-89 0-50 0-114 0-194h98v166c0 10 1 18 4 24 4 10 10 19 19 26 8 6 19 10 31 10 17 0 30-6 38-18s12-28 12-49v-159h99v170c0 44-10 77-31 100z" horiz-adv-x="1000" />

<glyph glyph-name="soc-mx" unicode="&#xe817;" d="M933 600l-433 250-433-250 0-500 433-250 433 250 0 500z m-433-679l-371 215 0 428 371 214 371-214 0-429-371-214z m135 470l-315 197v-228l49-31 266 62z m95 152h-228l-24-41 163-102 89 143z m-192-342l142-90v229l-39 25-103-164z m-173 108l-95-152h228l133 214-266-62z" horiz-adv-x="1000" />

<glyph glyph-name="soc-tw" unicode="&#xe818;" d="M933 600l-433 250-433-250 0-500 433-250 433 250 0 500z m-433-679l-371 215 0 428 371 214 371-214 0-429-371-214z m230 571c-18-7-36-12-54-14 20 12 34 29 41 52-18-11-38-19-60-23-18 20-41 30-68 30-26 0-49-9-67-28-18-18-28-40-28-66 0-7 1-15 3-22-39 2-75 12-109 29s-62 41-86 70c-8-15-12-31-12-48 0-16 3-31 11-45 8-14 18-25 31-34-16 1-30 5-43 12v-1c0-23 7-43 21-60 15-17 33-28 55-32-9-3-17-4-25-4-6 0-12 1-18 2 6-19 17-35 33-47 16-12 35-18 55-19-34-26-73-40-117-40-8 0-16 1-23 1 44-28 92-42 145-42 33 0 65 5 94 16 30 11 55 25 76 43 20 17 38 38 53 61s27 47 34 73c8 25 11 50 11 75 0 6 0 10 0 13 18 13 34 29 47 48z" horiz-adv-x="1000" />

<glyph glyph-name="soc-vk" unicode="&#xe819;" d="M933 600l-433 250-433-250 0-500 433-250 433 250 0 500z m-433-679l-371 215 0 428 371 214 371-214 0-429-371-214z m228 323c-1 1-1 2-2 3-8 15-23 32-46 53l0 1 0 0-1 0h0c-10 10-16 16-19 20-5 6-6 12-4 19 2 5 9 15 22 31 7 9 12 16 16 21 27 37 39 60 36 70l-2 3c-1 1-3 2-7 4s-9 1-16 0l-69 0c-1 0-3 0-4 0-2-1-3-1-4-1 0 0 0-1-1-1l-1-1c-1 0-1-1-2-2s-2-3-3-4c-7-20-16-38-25-54-6-10-12-19-17-26-5-7-9-13-12-16-3-3-6-6-9-8-3-2-5-3-6-3-2 1-3 1-4 1-3 2-4 4-6 6s-2 6-3 9c0 4 0 7 0 10 0 3 0 7 0 11 0 5 0 9 0 10 0 6 0 13 0 20 1 7 1 13 1 17 0 4 0 9 0 13s0 8-1 11c0 3-1 5-2 8-1 2-3 4-5 5-2 2-5 3-8 4-9 2-19 3-33 3-29 0-48-2-57-6-3-2-6-4-9-7-3-4-3-6-1-6 10-1 16-5 20-10l2-3c1-2 2-6 3-11 1-5 2-11 2-18 1-11 1-21 0-30s-1-14-2-19c-1-5-2-8-3-11-1-3-2-5-3-5s-1-1-1-2c-2 0-4-1-6-1-3 0-5 1-9 4-3 2-6 5-10 9-3 4-7 9-11 16-5 7-9 16-14 25l-3 7c-3 5-6 11-10 20-4 8-8 17-11 25-1 3-3 6-6 7l-1 1c-1 1-2 1-4 2-2 1-4 1-6 2l-65-1c-7 0-11-1-14-4l-1-2c0-1-1-2-1-4s1-4 2-6c9-23 20-44 31-65s21-38 29-51c9-13 17-25 26-36s14-19 17-22c3-3 5-5 7-7l6-6c3-4 9-8 16-14 8-5 16-10 25-15s20-10 31-13c12-3 24-5 35-4h28c6 0 10 2 13 5l1 1c0 1 1 3 1 5s1 4 1 6c0 7 1 13 2 19 1 6 2 10 4 12 1 3 3 6 5 7 2 2 3 3 4 4 1 0 1 0 2 1 4 1 8 0 14-4s10-9 14-14c5-6 10-12 17-19 6-6 12-12 16-15l5-3c3-2 8-3 13-5 5-2 9-2 13-1l61 1c6 0 11 1 15 3s5 4 6 6c0 3 0 6 0 9-1 3-2 5-2 6z" horiz-adv-x="1000" />

<glyph glyph-name="soc-yt" unicode="&#xe81a;" d="M933 600l-433 250-433-250 0-500 433-250 433 250 0 500z m-433-679l-371 215 0 428 371 214 371-214 0-429-371-214z m-5 483c11 0 20 4 26 12 4 6 7 16 7 29v43c0 13-3 23-7 29-6 9-15 13-26 13-11 0-20-4-26-13-5-6-7-15-7-29v-43c0-13 2-22 7-29 6-8 15-12 26-12z m-11 89c0 11 4 17 11 17s11-6 11-17v-52c0-11-4-17-11-17s-11 6-11 17v52z m78-89c9 0 17 5 26 15v-14h22v123h-22v-94c-5-7-10-10-14-10-3 0-5 2-6 5 0 1 0 3 0 9v90h-22v-97c0-8 0-14 2-18 2-6 7-9 14-9z m114-61c-3 9-7 17-15 24-7 7-15 10-25 12-30 3-75 5-136 5-61 0-106-2-136-5-10-2-18-5-25-12s-12-15-14-24c-5-19-7-48-7-86 0-39 2-68 7-86 2-10 6-18 14-25 7-6 15-10 25-11 30-3 76-5 136-5 61 0 106 2 136 5 10 1 18 5 25 11 8 7 12 15 15 25 4 19 6 47 6 86 0 39-2 67-6 86z m-254-25h-26v-140h-25v140h-26v23h77v-23z m66-140h-22v13c-8-10-17-15-25-15-7 0-12 3-14 9-1 4-2 10-2 18v96h22v-89c0-5 0-8 0-9 1-3 2-5 5-5 5 0 9 4 14 11v92h22v-121z m84 36c0-12-1-20-2-24-3-9-9-14-18-14-8 0-15 5-23 14v-12h-21v163h21v-53c7 8 15 13 23 13 9 0 15-5 18-14 1-4 2-12 2-24v-49z m83 21h-44v-22c0-11 4-17 11-17 5 0 9 3 10 9 0 2 0 7 0 15h23v-3c0-8 0-13-1-14 0-5-2-9-5-14-6-8-15-13-26-13-12 0-21 5-27 13-5 6-7 16-7 28v43c0 13 2 22 7 28 6 9 15 13 26 13s19-4 26-13c4-6 6-15 6-28v-25h1z m-33 46c-8 0-11-6-11-17v-11h22v11c0 11-4 17-11 17z m-82 0c-4 0-7-2-11-5v-74c4-4 7-6 11-6 7 0 10 6 10 17v51c0 11-3 17-10 17z m-132 191v-67h24v67l30 98h-25l-17-65-17 65h-26c4-14 10-29 16-46 7-23 12-40 15-52z" horiz-adv-x="1000" />

<glyph glyph-name="hex" unicode="&#xe81b;" d="M935 600v-500l-435-250-435 250v500l435 250 435-250z" horiz-adv-x="1000" />

<glyph glyph-name="hex-o" unicode="&#xe81c;" d="M500-150l-435 250v500l435 250 435-250v-500l-435-250z m-351 298l351-202 351 202v404l-351 202-351-202v-404z" horiz-adv-x="1000" />

<glyph glyph-name="more" unicode="&#xe81d;" d="M991 335c-47-52-99-97-157-138-18 13-35 26-52 38 25 20 51 38 76 59 24 19 46 41 72 64-30 25-57 51-85 74-83 66-176 113-281 135-64 13-127 5-188-16-81-27-155-65-220-119-29-24-56-48-86-73 47-45 92-85 143-118 55-36 115-63 179-82 80-25 160-22 238 7 10 3 17 3 25-4 15-12 32-24 50-37-6-3-10-5-14-7-143-60-282-50-420 18-98 48-183 115-258 195-15 17-17 34-3 49 100 108 215 193 357 236 116 36 229 23 339-26 109-49 202-120 283-207 14-16 15-33 2-48z m-103-236c-3-6-6-11-10-15-20-25-27-26-53-8-49 35-98 69-147 104-7 5-13 10-11 21 0 3-2 7-5 9-8 7-17 13-27 20-47-45-101-65-165-55-44 7-80 28-109 60-59 68-61 168-5 238 57 71 156 90 234 45 87-49 113-138 73-251 10-7 20-14 30-22 2-1 6-1 8 0 10 5 17 1 25-5 51-37 103-73 154-109 14-10 16-17 8-32z m-254 258c0 74-60 133-133 134-74 1-135-59-135-133 0-74 60-135 134-135 73 0 134 61 134 134z m-134 65c-36 1-65-28-65-64 0-36 30-66 65-66 36 0 65 29 65 65 0 36-29 65-65 65z" horiz-adv-x="1000" />

<glyph glyph-name="share" unicode="&#xe81e;" d="M799 127q46 0 79-33t33-79-33-79-78-33-79 33-33 80q0 18 8 39l-169 122q-49-50-118-50t-118 49-50 119q0 9 3 26l-134 44q-16-14-36-14-24 0-40 16t-16 40 16 39 40 16q20 0 34-13t19-31l135-45q21 41 61 65t86 24q52 0 96-31l199 199q-16 30-16 55 0 46 33 79t79 33 78-33 33-79-33-78-79-33q-26 0-55 17l-199-200q31-44 31-96 0-37-17-73l169-121q33 26 71 26z" horiz-adv-x="928" />

<glyph glyph-name="trash" unicode="&#xf083;" d="M0 684q0 37 59 67t161 49 222 18q121 0 223-18t161-49 59-67q-10-80-39-227t-55-276-29-138q-6-36-39-68t-81-51-100-31-100-12-100 12-99 31-81 51-39 68q-4 21-33 160t-56 278-34 203z m126-223l38-183 87 75z m6 193q0-31 91-54t219-22q129 0 220 22t91 54q0 32-91 55t-220 22-219-22-91-55z m55-488l21-102 49 42z m8 312l101-87 71 62q-95 6-172 25z m5-246l101-88 96 83-101 87z m49-209q72-31 149-38l-97 83z m91 330l101-88 96 83-99 89z m6-247l102-88 95 83-102 88z m140 121l101-87 92 80-98 89z m14-241q71 8 134 36l-47 41z m8 466l73-66 106 91q-79-20-179-25z m117-105l93-84 41 199z m7-246l44-39 20 96z" horiz-adv-x="884.8" />

<glyph glyph-name="menu" unicode="&#xf0c9;" d="M857 100v-71q0-15-10-25t-26-11h-785q-15 0-25 11t-11 25v71q0 15 11 25t25 11h785q15 0 26-11t10-25z m0 286v-72q0-14-10-25t-26-10h-785q-15 0-25 10t-11 25v72q0 14 11 25t25 10h785q15 0 26-10t10-25z m0 285v-71q0-14-10-25t-26-11h-785q-15 0-25 11t-11 25v71q0 15 11 26t25 10h785q15 0 26-10t10-26z" horiz-adv-x="857.1" />

<glyph glyph-name="mail-alt" unicode="&#xf0e0;" d="M1000 454v-443q0-37-26-63t-63-27h-822q-36 0-63 27t-26 63v443q25-27 56-49 202-137 278-192 32-24 51-37t53-27 61-13h2q28 0 61 13t53 27 51 37q95 68 278 192 32 22 56 49z m0 164q0-44-27-84t-68-69q-210-146-262-181-5-4-23-17t-30-22-29-18-32-15-28-5h-2q-12 0-27 5t-32 15-30 18-30 22-23 17q-51 35-147 101t-114 80q-35 23-65 64t-31 77q0 43 23 72t66 29h822q36 0 63-26t26-63z" horiz-adv-x="1000" />

<glyph glyph-name="skype" unicode="&#xf17e;" d="M655 257q0 28-11 51t-27 38-41 27-46 19-49 13l-58 14q-17 4-25 6t-19 6-17 9-9 12-4 16q0 43 80 43 24 0 43-6t30-16 21-19 23-16 27-7q26 0 42 18t16 43q0 31-32 55t-79 38-101 13q-38 0-74-9t-67-26-49-48-19-72q0-34 10-60t32-42 44-27 58-18l81-20q51-12 63-20 18-11 18-34 0-21-23-36t-58-14q-29 0-51 9t-37 22-25 25-26 21-30 9q-28 0-42-17t-14-41q0-52 68-88t162-37q41 0 78 10t69 30 49 52 19 74z m202-121q0-89-63-152t-151-63q-73 0-131 45-43-9-83-9-80 0-153 31t-126 84-83 125-31 153q0 41 9 84-45 58-45 130 0 89 63 152t151 63q73 0 131-45 43 9 84 9 79 0 152-31t126-84 84-125 30-153q0-41-8-84 44-58 44-130z" horiz-adv-x="857.1" />

<glyph glyph-name="paper-plane" unicode="&#xf1d8;" d="M984 844q19-13 15-36l-142-857q-3-16-18-25-8-5-18-5-6 0-13 3l-253 104-135-165q-10-13-27-13-7 0-12 2-11 4-17 13t-7 21v195l482 590-596-516-221 91q-20 8-22 30-1 23 18 33l928 536q9 5 18 5 11 0 20-6z" horiz-adv-x="1000" />

<glyph glyph-name="comment" unicode="&#xf27a;" d="M357 350q0 30-21 51t-50 20-51-20-21-51 21-50 51-21 50 21 21 50z m214 0q0 30-20 51t-51 20-50-20-21-51 21-50 50-21 51 21 20 50z m215 0q0 30-21 51t-51 20-50-20-21-51 21-50 50-21 51 21 21 50z m214 0q0-97-67-179t-182-130-251-48q-61 0-118 10-96-97-242-128-29-6-48-7-7-1-13 3t-7 10q-2 9 11 21 3 3 13 12t15 13 13 14 13 18 11 20 12 27 8 32 7 41q-82 50-128 121t-47 150q0 97 67 179t182 130 251 48 251-48 182-130 67-179z" horiz-adv-x="1000" />

<glyph glyph-name="comment-o" unicode="&#xf27b;" d="M357 350q0-30-21-50t-50-21-51 21-21 50 21 51 51 20 50-20 21-51z m214 0q0-30-20-50t-51-21-50 21-21 50 21 51 50 20 51-20 20-51z m215 0q0-30-21-50t-51-21-50 21-21 50 21 51 50 20 51-20 21-51z m-286 286q-114 0-213-39t-157-105-59-142q0-62 40-119t113-98l48-28-15-53q-13-51-39-97 85 36 154 96l24 21 32-3q38-5 72-5 114 0 213 39t157 105 59 142-59 142-157 105-213 39z m500-286q0-97-67-179t-182-130-251-48q-39 0-81 4-110-97-257-135-27-8-63-12h-3q-8 0-15 6t-9 15v1q-2 2 0 6t1 6 2 5l4 5t4 5 4 5q4 5 17 19t20 22 17 22 18 28 15 33 15 42q-88 50-138 123t-51 157q0 73 40 139t106 114 160 76 194 28 194-28 160-76 106-114 40-139z" horiz-adv-x="1000" />

<glyph glyph-name="telegram" unicode="&#xf2c6;" d="M664 121l82 386q5 25-6 36t-29 3l-482-185q-16-6-22-14t-2-15 18-11l124-38 286 180q12 8 18 3 4-3-3-8l-231-210-9-127q13 0 25 13l60 58 125-93q36-20 46 22z m336 229q0-102-40-194t-106-160-160-106-194-40-194 40-160 106-106 160-40 194 40 194 106 160 160 106 194 40 194-40 160-106 106-160 40-194z" horiz-adv-x="1000" />

<glyph glyph-name="icq" unicode="&#xf304;" d="M355 823c-31 7-57 4-84-10-29-18-46-47-53-86-7-41 0-80 21-120l10-14-34 11c-42 10-82 4-121-17-41-21-66-50-83-91-16-40-15-78 5-113 9-16 21-28 33-37 17-17 38-27 63-31l10-3-21-18c-20-17-31-38-38-59-7-26-4-51 10-75 7-11 14-21 25-28 11-10 25-17 42-18 31-7 64-7 99 4l-25-42-7-19c-15-45-10-84 11-125 10-16 21-30 32-43 17-15 38-25 64-32 42-11 84-10 125 11 40 21 65 55 78 98l1 8c27-30 52-49 80-56 29-9 57-7 82 9 24 15 41 39 50 68 7 31 7 62 0 97 14-9 28-16 45-21 45-14 84-12 124 9 38 21 63 55 76 99 11 42 8 83-13 122l-7 11c-11 17-22 34-39 46-14 9-31 16-47 24 44 21 75 50 89 88 10 31 7 57-7 82l0 3c-17 28-40 46-75 56-21 5-45 5-66 3l-47-10 16 36c14 45 10 88-14 129l-4 7c-22 36-53 57-95 68-44 11-84 7-124-14-39-21-68-54-80-96l0-3-2-10-5 10-14 26c-23 35-51 56-86 66z m359-85c7-14 11-31 11-49l-4-31c-5-16-13-30-21-42l-127-156c-13 10-27 17-41 24l-14 160-1 56 1 14c7 28 27 50 52 64 26 14 54 17 81 7 29-7 50-23 63-47z m-437-28c1 25 11 42 28 52 9 7 21 7 33 2 25-8 46-26 63-61 7-14 14-28 17-45l28-167-21-7-125 137-7 14c-12 26-19 50-16 75z m-76-165l38-15 124-91c-11-14-18-28-22-42l-204-25-14 2c-25 5-42 16-53 37-11 21-11 42-3 64 10 26 28 47 55 59 25 14 51 18 79 11z m134-230l10-28 4-10c-21-18-37-35-54-51l-42-35-11-7c-27-13-50-17-74-14-21 1-38 8-45 21l-4 16 3 12c7 21 25 43 58 58 17 7 31 14 42 17l113 21z m440 229c25 11 49 14 74 11 24-3 41-14 50-31l5-18-2-15c-10-25-31-45-67-60-14-7-29-10-46-13l-174-21-2 10-3 4 5 7 143 119 17 7z m-360-134c17 15 40 25 66 25 26 0 50-10 65-25 20-20 29-41 29-67s-9-49-29-66c-18-18-39-28-65-28-26 0-49 10-66 28-18 17-28 41-28 66s10 47 28 67z m33-205c2-48 7-98 14-153l0-57-2-14c-10-25-26-47-52-58-25-14-52-17-77-10-29 7-50 24-61 47-7 14-13 31-13 48l7 32c3 14 10 28 22 40l118 141c14-7 28-14 44-16z m108 19l59-61 37-45 7-14c13-24 20-47 17-74-3-25-11-43-28-50-10-8-21-8-33-6-26 7-48 28-63 62l-17 47-21 122 24 9 18 10z m64 87l159 14 56 1 14-1c22-7 41-20 53-41 14-15 21-36 21-60l-4-29c-7-28-24-49-48-60-26-14-51-17-79-7-17 4-29 11-38 22l-148 123 9 21 5 17z" horiz-adv-x="981" />
</font>
</defs>
</svg>
